{
  "source": "C:\\Users\\Peter\\Desktop\\stuff\\MIUN\\quantitative_research\\video_compression\\videos\\BVI-HD\\BVI-HD_CDVL_videos\\ORIG\\Typing_1920x1080_60fps.mp4",
  "output": "C:\\Users\\Peter\\Desktop\\stuff\\MIUN\\quantitative_research\\video_compression\\compressed_videos\\BVI-HD\\h264\\2.5\\Typing_1920x1080_60fps_h264.mp4",
  "codec": "h264",
  "ok": "Input #0, mov,mp4,m4a,3gp,3g2,mj2, from 'C:\\Users\\Peter\\Desktop\\stuff\\MIUN\\quantitative_research\\video_compression\\videos\\BVI-HD\\BVI-HD_CDVL_videos\\ORIG\\Typing_1920x1080_60fps.mp4':\n  Metadata:\n    major_brand     : isom\n    minor_version   : 512\n    compatible_brands: isomiso2avc1mp41\n    encoder         : Lavf54.28.101\n  Duration: 00:00:05.00, start: 0.000000, bitrate: 203453 kb/s\n  Stream #0:0[0x1](und): Video: h264 (High 4:4:4 Predictive) (avc1 / 0x31637661), yuv420p(progressive), 1920x1080, 203448 kb/s, 60 fps, 60 tbr, 60 tbn (default)\n    Metadata:\n      handler_name    : VideoHandler\n      vendor_id       : [0][0][0][0]\n[out#0/mp4 @ 0000011cc4909b40] Codec AVOption b:a (set bitrate (in bits/s)) has not been used for any stream. The most likely reason is either wrong type (e.g. a video option with no video streams) or that it is a private option of some decoder which was not actually used for any stream.\nStream mapping:\n  Stream #0:0 -> #0:0 (h264 (native) -> h264 (libx264))\nPress [q] to stop, [?] for help\n[libx264 @ 0000011cc4e64ec0] using cpu capabilities: MMX2 SSE2Fast SSSE3 SSE4.2 AVX FMA3 BMI2 AVX2\n[libx264 @ 0000011cc4e64ec0] profile High, level 5.0, 4:2:0, 8-bit\n[libx264 @ 0000011cc4e64ec0] 264 - core 165 r3222 b35605a - H.264/MPEG-4 AVC codec - Copyleft 2003-2025 - http://www.videolan.org/x264.html - options: cabac=1 ref=5 deblock=1:0:0 analyse=0x3:0x113 me=hex subme=8 psy=1 psy_rd=1.00:0.00 mixed_ref=1 me_range=16 chroma_me=1 trellis=2 8x8dct=1 cqm=0 deadzone=21,11 fast_pskip=1 chroma_qp_offset=-2 threads=18 lookahead_threads=3 sliced_threads=0 nr=0 decimate=1 interlaced=0 bluray_compat=0 constrained_intra=0 bframes=3 b_pyramid=2 b_adapt=1 b_bias=0 direct=3 weightb=1 open_gop=0 weightp=2 keyint=250 keyint_min=25 scenecut=40 intra_refresh=0 rc_lookahead=50 rc=cbr mbtree=1 bitrate=2500 ratetol=1.0 qcomp=0.60 qpmin=0 qpmax=69 qpstep=4 vbv_maxrate=2500 vbv_bufsize=2500 nal_hrd=none filler=0 ip_ratio=1.40 aq=1:1.00\nOutput #0, mp4, to 'C:\\Users\\Peter\\Desktop\\stuff\\MIUN\\quantitative_research\\video_compression\\compressed_videos\\BVI-HD\\h264\\2.5\\Typing_1920x1080_60fps_h264.mp4':\n  Metadata:\n    major_brand     : isom\n    minor_version   : 512\n    compatible_brands: isomiso2avc1mp41\n    encoder         : Lavf62.3.100\n  Stream #0:0(und): Video: h264 (avc1 / 0x31637661), yuv420p(tv, progressive), 1920x1080, q=2-31, 2500 kb/s, 60 fps, 15360 tbn (default)\n    Metadata:\n      encoder         : Lavc62.11.100 libx264\n      handler_name    : VideoHandler\n      vendor_id       : [0][0][0][0]\n    Side data:\n      cpb: bitrate max/min/avg: 2500000/0/2500000 buffer size: 2500000 vbv_delay: N/A\nframe=    0 fps=0.0 q=0.0 size=       0KiB time=N/A bitrate=N/A speed=N/A elapsed=0:00:00.51    \nframe=    0 fps=0.0 q=0.0 size=       0KiB time=N/A bitrate=N/A speed=N/A elapsed=0:00:01.06    \nframe=   29 fps= 18 q=35.0 size=       0KiB time=00:00:00.36 bitrate=   1.0kbits/s speed=0.226x elapsed=0:00:01.62    \nframe=   60 fps= 27 q=35.0 size=       0KiB time=00:00:00.90 bitrate=   0.4kbits/s speed=0.399x elapsed=0:00:02.25    \nframe=   88 fps= 31 q=34.0 size=     256KiB time=00:00:01.36 bitrate=1534.8kbits/s speed=0.479x elapsed=0:00:02.85    \nframe=  117 fps= 34 q=34.0 size=     256KiB time=00:00:01.91 bitrate=1094.4kbits/s speed=0.559x elapsed=0:00:03.42    \nframe=  148 fps= 37 q=34.0 size=     512KiB time=00:00:02.43 bitrate=1723.8kbits/s speed=0.612x elapsed=0:00:03.97    \nframe=  180 fps= 40 q=33.0 size=     512KiB time=00:00:02.90 bitrate=1446.4kbits/s speed=0.639x elapsed=0:00:04.53    \nframe=  212 fps= 41 q=34.0 size=     768KiB time=00:00:03.41 bitrate=1841.5kbits/s speed=0.663x elapsed=0:00:05.15    \nframe=  233 fps= 40 q=34.0 size=     768KiB time=00:00:03.85 bitrate=1634.2kbits/s speed=0.667x elapsed=0:00:05.77    \nframe=  277 fps= 44 q=33.0 size=    1024KiB time=00:00:04.50 bitrate=1864.2kbits/s speed=0.711x elapsed=0:00:06.32    \n[mp4 @ 0000011cc4e65c00] Starting second pass: moving the moov atom to the beginning of the file\n[out#0/mp4 @ 0000011cc4909b40] video:1194KiB audio:0KiB subtitle:0KiB other streams:0KiB global headers:0KiB muxing overhead: 0.365539%\nframe=  300 fps= 45 q=-1.0 Lsize=    1199KiB time=00:00:04.96 bitrate=1977.3kbits/s speed=0.749x elapsed=0:00:06.63    \n[libx264 @ 0000011cc4e64ec0] frame I:2     Avg QP:29.43  size: 57262\n[libx264 @ 0000011cc4e64ec0] frame P:76    Avg QP:27.95  size:  7905\n[libx264 @ 0000011cc4e64ec0] frame B:222   Avg QP:31.21  size:  2284\n[libx264 @ 0000011cc4e64ec0] consecutive B-frames:  1.3%  0.0%  0.0% 98.7%\n[libx264 @ 0000011cc4e64ec0] mb I  I16..4: 29.2% 67.4%  3.4%\n[libx264 @ 0000011cc4e64ec0] mb P  I16..4:  3.9%  3.8%  0.1%  P16..4: 22.6%  1.4%  1.3%  0.0%  0.0%    skip:67.0%\n[libx264 @ 0000011cc4e64ec0] mb B  I16..4:  0.3%  0.3%  0.0%  B16..8: 14.3%  0.8%  0.1%  direct: 0.5%  skip:83.8%  L0:45.5% L1:53.0% BI: 1.5%\n[libx264 @ 0000011cc4e64ec0] 8x8 transform intra:53.6% inter:94.0%\n[libx264 @ 0000011cc4e64ec0] direct mvs  spatial:95.5% temporal:4.5%\n[libx264 @ 0000011cc4e64ec0] coded y,uvDC,uvAC intra: 27.5% 43.5% 6.6% inter: 1.6% 3.1% 0.0%\n[libx264 @ 0000011cc4e64ec0] i16 v,h,dc,p: 12% 34%  9% 45%\n[libx264 @ 0000011cc4e64ec0] i8 v,h,dc,ddl,ddr,vr,hd,vl,hu:  6% 17% 18%  6% 13%  7% 14%  6% 13%\n[libx264 @ 0000011cc4e64ec0] i4 v,h,dc,ddl,ddr,vr,hd,vl,hu:  5% 15%  5%  6% 26% 11% 15%  5% 12%\n[libx264 @ 0000011cc4e64ec0] i8c dc,h,v,p: 58% 30%  8%  4%\n[libx264 @ 0000011cc4e64ec0] Weighted P-Frames: Y:0.0% UV:0.0%\n[libx264 @ 0000011cc4e64ec0] ref P L0: 44.9% 12.0% 17.4% 10.1% 15.6%\n[libx264 @ 0000011cc4e64ec0] ref B L0: 73.7% 14.3%  8.8%  3.2%\n[libx264 @ 0000011cc4e64ec0] ref B L1: 91.0%  9.0%\n[libx264 @ 0000011cc4e64ec0] kb/s:1955.78\n",
  "seconds": 7.024696111679077,
  "probe_out": {}
}